<mxfile host="app.diagrams.net" modified="2023-10-08T13:31:23.850Z" agent="Mozilla/5.0 (Windows NT 10.0; Win64; x64) AppleWebKit/537.36 (KHTML, like Gecko) Chrome/117.0.0.0 Safari/537.36" etag="8rjURmS8TnyRVukkvsr3" version="21.6.9" type="github">
  <diagram name="Page-1" id="FDIGk6M8lIRo38q5FCfL">
    <mxGraphModel dx="1615" dy="838" grid="1" gridSize="10" guides="1" tooltips="1" connect="1" arrows="1" fold="1" page="1" pageScale="1" pageWidth="850" pageHeight="1100" math="0" shadow="0">
      <root>
        <mxCell id="0" />
        <mxCell id="1" parent="0" />
        <mxCell id="BISF3pt-eWMju1SnT-_H-5" style="edgeStyle=orthogonalEdgeStyle;rounded=0;orthogonalLoop=1;jettySize=auto;html=1;" edge="1" parent="1" source="BISF3pt-eWMju1SnT-_H-1" target="BISF3pt-eWMju1SnT-_H-2">
          <mxGeometry relative="1" as="geometry" />
        </mxCell>
        <mxCell id="BISF3pt-eWMju1SnT-_H-1" value="&lt;b&gt;USER&lt;/b&gt;" style="ellipse;whiteSpace=wrap;html=1;aspect=fixed;" vertex="1" parent="1">
          <mxGeometry x="90" y="170" width="80" height="80" as="geometry" />
        </mxCell>
        <mxCell id="BISF3pt-eWMju1SnT-_H-6" style="edgeStyle=orthogonalEdgeStyle;rounded=0;orthogonalLoop=1;jettySize=auto;html=1;entryX=0;entryY=0.5;entryDx=0;entryDy=0;" edge="1" parent="1" source="BISF3pt-eWMju1SnT-_H-2" target="BISF3pt-eWMju1SnT-_H-3">
          <mxGeometry relative="1" as="geometry" />
        </mxCell>
        <mxCell id="BISF3pt-eWMju1SnT-_H-2" value="&lt;b&gt;ENTER EMAIL,NAME&amp;nbsp; &amp;amp; PASSWORD&lt;/b&gt;" style="rounded=0;whiteSpace=wrap;html=1;" vertex="1" parent="1">
          <mxGeometry x="270" y="180" width="210" height="60" as="geometry" />
        </mxCell>
        <mxCell id="BISF3pt-eWMju1SnT-_H-7" style="edgeStyle=orthogonalEdgeStyle;rounded=0;orthogonalLoop=1;jettySize=auto;html=1;entryX=0;entryY=0.5;entryDx=0;entryDy=0;" edge="1" parent="1" source="BISF3pt-eWMju1SnT-_H-3">
          <mxGeometry relative="1" as="geometry">
            <mxPoint x="800" y="210" as="targetPoint" />
          </mxGeometry>
        </mxCell>
        <mxCell id="BISF3pt-eWMju1SnT-_H-3" value="&lt;b&gt;RegEx validation&lt;/b&gt;" style="shape=parallelogram;perimeter=parallelogramPerimeter;whiteSpace=wrap;html=1;fixedSize=1;" vertex="1" parent="1">
          <mxGeometry x="530" y="180" width="170" height="60" as="geometry" />
        </mxCell>
        <mxCell id="BISF3pt-eWMju1SnT-_H-11" value="" style="edgeStyle=orthogonalEdgeStyle;rounded=0;orthogonalLoop=1;jettySize=auto;html=1;" edge="1" parent="1" source="BISF3pt-eWMju1SnT-_H-8" target="BISF3pt-eWMju1SnT-_H-10">
          <mxGeometry relative="1" as="geometry" />
        </mxCell>
        <mxCell id="BISF3pt-eWMju1SnT-_H-13" style="edgeStyle=orthogonalEdgeStyle;rounded=0;orthogonalLoop=1;jettySize=auto;html=1;entryX=0.5;entryY=1;entryDx=0;entryDy=0;exitX=0.5;exitY=1;exitDx=0;exitDy=0;" edge="1" parent="1" source="BISF3pt-eWMju1SnT-_H-8" target="BISF3pt-eWMju1SnT-_H-2">
          <mxGeometry relative="1" as="geometry">
            <mxPoint x="880" y="350" as="sourcePoint" />
            <mxPoint x="370.0000000000001" y="310.00000000000006" as="targetPoint" />
            <Array as="points">
              <mxPoint x="875" y="360" />
              <mxPoint x="375" y="360" />
            </Array>
          </mxGeometry>
        </mxCell>
        <mxCell id="BISF3pt-eWMju1SnT-_H-8" value="If Validation Successfull" style="rhombus;whiteSpace=wrap;html=1;" vertex="1" parent="1">
          <mxGeometry x="800" y="130" width="150" height="160" as="geometry" />
        </mxCell>
        <mxCell id="BISF3pt-eWMju1SnT-_H-10" value="&lt;b&gt;Registration Successful&lt;/b&gt;" style="ellipse;whiteSpace=wrap;html=1;aspect=fixed;" vertex="1" parent="1">
          <mxGeometry x="1050" y="170" width="80" height="80" as="geometry" />
        </mxCell>
        <mxCell id="BISF3pt-eWMju1SnT-_H-15" value="&lt;b&gt;TRUE&lt;/b&gt;" style="text;html=1;align=center;verticalAlign=middle;resizable=0;points=[];autosize=1;strokeColor=none;fillColor=none;" vertex="1" parent="1">
          <mxGeometry x="945" y="180" width="60" height="30" as="geometry" />
        </mxCell>
        <mxCell id="BISF3pt-eWMju1SnT-_H-16" value="&lt;b&gt;FALSE&lt;/b&gt;" style="text;html=1;align=center;verticalAlign=middle;resizable=0;points=[];autosize=1;strokeColor=none;fillColor=none;" vertex="1" parent="1">
          <mxGeometry x="885" y="290" width="60" height="30" as="geometry" />
        </mxCell>
      </root>
    </mxGraphModel>
  </diagram>
</mxfile>
